<svg width="141" height="38" viewBox="0 0 141 38" fill="none" xmlns="http://www.w3.org/2000/svg">
<path fill-rule="evenodd" clip-rule="evenodd" d="M127.151 17.6672C126.901 17.195 126.665 16.8339 126.443 16.5839C126.221 16.3339 125.915 16.1533 125.526 16.0422C125.165 15.9033 124.609 15.8061 123.859 15.7505L122.234 24.2508C122.151 24.723 122.068 25.1397 121.984 25.5008C121.929 25.8619 121.901 26.1953 121.901 26.5008C121.901 27.0564 122.109 27.4037 122.526 27.5425C122.97 27.6814 123.915 27.8064 125.359 27.9176C125.332 28.112 125.29 28.3342 125.234 28.5842C125.207 28.8343 125.165 29.0565 125.109 29.2509C124.248 29.2232 123.276 29.2093 122.193 29.2093C121.137 29.1815 120.137 29.1676 119.192 29.1676C118.248 29.1676 117.262 29.1815 116.234 29.2093C115.234 29.2093 114.165 29.2232 113.026 29.2509C113.026 29.0565 113.04 28.8343 113.067 28.5842C113.095 28.3342 113.151 28.112 113.234 27.9176C114.428 27.7787 115.29 27.6537 115.817 27.5425C116.373 27.4037 116.748 27.1398 116.942 26.7509C117.165 26.3342 117.359 25.6675 117.526 24.7508L121.359 5.00016C121.47 4.50014 121.554 4.08346 121.609 3.75012C121.665 3.389 121.693 3.08343 121.693 2.83342C121.693 2.19452 121.443 1.8195 120.943 1.70839C120.47 1.5695 119.512 1.44449 118.067 1.33338C118.095 0.916697 118.179 0.472238 118.317 0C119.123 0 120.04 0.0138891 121.068 0.0416675C122.095 0.0694458 122.929 0.0833351 123.568 0.0833351H125.484C126.318 0.0555568 127.137 0.0416675 127.943 0.0416675C128.748 0.0138891 129.346 0 129.734 0C132.707 0 134.957 0.527795 136.485 1.58338C138.04 2.63897 138.818 4.27792 138.818 6.50021C138.818 8.75028 138.054 10.6115 136.526 12.0837C134.999 13.5282 133.026 14.5977 130.61 15.2922V15.4172C130.832 15.6672 131.04 15.945 131.235 16.2505C131.457 16.5283 131.679 16.8617 131.901 17.2506C132.151 17.6672 132.457 18.2506 132.818 19.0006C133.207 19.7506 133.61 20.5562 134.026 21.4174C134.443 22.2507 134.832 23.0424 135.193 23.7924C135.804 25.0147 136.332 25.9175 136.776 26.5008C137.221 27.0564 137.721 27.4175 138.276 27.5842C138.832 27.7231 139.568 27.8342 140.485 27.9176C140.485 28.362 140.388 28.8065 140.193 29.2509C139.749 29.2509 139.165 29.237 138.443 29.2093H136.318C135.624 29.1815 135.068 29.1676 134.651 29.1676C134.207 29.1676 133.846 29.1815 133.568 29.2093H132.526C132.082 28.0703 131.568 26.8481 130.985 25.5425C130.429 24.2091 129.818 22.8618 129.151 21.5007C128.512 20.1395 127.846 18.8617 127.151 17.6672ZM124.193 14.0421C124.554 14.0977 124.929 14.1532 125.318 14.2088C125.734 14.2366 126.137 14.2505 126.526 14.2505C128.276 14.2505 129.707 13.9171 130.818 13.2504C131.929 12.5837 132.748 11.6948 133.276 10.5837C133.804 9.47253 134.068 8.25027 134.068 6.91689C134.068 6.08353 133.929 5.27795 133.651 4.50014C133.401 3.69456 132.915 3.02787 132.193 2.50008C131.498 1.97229 130.485 1.70839 129.151 1.70839C128.901 1.70839 128.512 1.72228 127.984 1.75006C127.484 1.75006 127.012 1.76394 126.568 1.79172L124.193 14.0421ZM0 29.2065V0.0507994H4.93842V24.7904H18.9464V29.2065H0ZM64.4959 8.12321V29.2065H59.7475V27.2121C58.6078 28.5417 56.566 29.6813 54.0968 29.6813C49.3008 29.6813 46.6891 26.4998 46.6891 21.8463V8.12321H51.4376V21.0391C51.4376 23.6507 52.6722 25.3602 55.3789 25.3602C57.4207 25.3602 59.2251 24.0781 59.7475 21.9888V8.12321H64.4959ZM74.3984 37.2789V27.402C75.3481 28.5892 77.4374 29.6813 79.7642 29.6813C85.9372 29.6813 89.546 24.553 89.546 18.6648C89.546 12.7767 85.9372 7.64837 79.7642 7.64837C77.4374 7.64837 75.3481 8.74052 74.3984 9.92764V8.12321H69.6499V37.2789H74.3984ZM74.3984 22.6536V14.6761C75.2056 13.0142 77.01 11.8745 78.9569 11.8745C82.6132 11.8745 84.7975 14.7711 84.7975 18.6648C84.7975 22.5586 82.6132 25.4552 78.9569 25.4552C77.01 25.4552 75.2056 24.3155 74.3984 22.6536ZM106.357 22.6536H110.725C110.013 26.8322 106.927 29.6813 101.846 29.6813C95.9576 29.6813 91.8739 25.2177 91.8739 18.7123C91.8739 12.3968 96.0051 7.64837 101.751 7.64837C107.686 7.64837 110.915 11.8745 110.915 18.0475V19.757H96.5274C96.6699 23.4608 98.8067 25.6926 101.846 25.6926C104.125 25.6926 105.834 24.6954 106.357 22.6536ZM101.798 11.6371C99.1865 11.6371 97.2397 13.2516 96.6699 16.2906H106.214C106.167 13.7264 104.695 11.6371 101.798 11.6371ZM32 9.75002C27.4437 9.75002 23.75 13.4437 23.75 18C23.75 22.5564 27.4436 26.25 32 26.25C36.5563 26.25 40.25 22.5564 40.25 18C40.25 13.4437 36.5563 9.75002 32 9.75002ZM20.25 18C20.25 11.5107 25.5107 6.25002 32 6.25002C38.4893 6.25002 43.75 11.5107 43.75 18C43.75 24.4894 38.4893 29.75 32 29.75C25.5107 29.75 20.25 24.4894 20.25 18Z" fill="url(#paint0_linear_3278_53833)"/>
<path fill-rule="evenodd" clip-rule="evenodd" d="M25.6439 15.8713C25.9063 15.9575 26.1888 15.8146 26.275 15.5523C27.01 13.3142 29.1167 11.6992 31.5993 11.6992C31.8755 11.6992 32.0993 11.4754 32.0993 11.1992C32.0993 10.9231 31.8755 10.6992 31.5993 10.6992C28.6719 10.6992 26.1907 12.6039 25.3249 15.2402C25.2387 15.5026 25.3816 15.7851 25.6439 15.8713Z" fill="url(#paint1_linear_3278_53833)"/>
<circle cx="34.1735" cy="18.3317" r="1.30255" transform="rotate(19.0163 34.1735 18.3317)" fill="url(#paint2_linear_3278_53833)"/>
<circle cx="30.4976" cy="15.5851" r="1.15775" transform="rotate(19.0163 30.4976 15.5851)" fill="url(#paint3_linear_3278_53833)"/>
<circle cx="27.9895" cy="20.9837" r="1.25003" transform="rotate(19.0163 27.9895 20.9837)" fill="url(#paint4_linear_3278_53833)"/>
<circle cx="32.541" cy="22.9594" r="1.887" transform="rotate(19.0163 32.541 22.9594)" fill="url(#paint5_linear_3278_53833)"/>
<circle cx="30.5163" cy="19.1325" r="0.815598" transform="rotate(19.0163 30.5163 19.1325)" fill="url(#paint6_linear_3278_53833)"/>
<circle cx="37.1773" cy="20.4378" r="0.647078" transform="rotate(19.0163 37.1773 20.4378)" fill="url(#paint7_linear_3278_53833)"/>
<circle cx="34.7727" cy="14.6927" r="1.17324" transform="rotate(19.0163 34.7727 14.6927)" fill="url(#paint8_linear_3278_53833)"/>
<defs>
<linearGradient id="paint0_linear_3278_53833" x1="3" y1="-23.5" x2="102" y2="47.5" gradientUnits="userSpaceOnUse">
<stop stop-color="#2863B9"/>
<stop offset="1" stop-color="#091C37"/>
</linearGradient>
<linearGradient id="paint1_linear_3278_53833" x1="28.6996" y1="10.6992" x2="28.6996" y2="15.8964" gradientUnits="userSpaceOnUse">
<stop stop-color="#2863B9"/>
<stop offset="1" stop-color="#091C37"/>
</linearGradient>
<linearGradient id="paint2_linear_3278_53833" x1="32.871" y1="18.3317" x2="35.476" y2="18.3317" gradientUnits="userSpaceOnUse">
<stop stop-color="#2863B9"/>
<stop offset="1" stop-color="#091C37"/>
</linearGradient>
<linearGradient id="paint3_linear_3278_53833" x1="29.3399" y1="15.5851" x2="31.6553" y2="15.5851" gradientUnits="userSpaceOnUse">
<stop stop-color="#2863B9"/>
<stop offset="1" stop-color="#091C37"/>
</linearGradient>
<linearGradient id="paint4_linear_3278_53833" x1="26.7394" y1="20.9837" x2="29.2395" y2="20.9837" gradientUnits="userSpaceOnUse">
<stop stop-color="#2863B9"/>
<stop offset="1" stop-color="#091C37"/>
</linearGradient>
<linearGradient id="paint5_linear_3278_53833" x1="30.654" y1="22.9594" x2="34.428" y2="22.9594" gradientUnits="userSpaceOnUse">
<stop stop-color="#2863B9"/>
<stop offset="1" stop-color="#091C37"/>
</linearGradient>
<linearGradient id="paint6_linear_3278_53833" x1="29.7007" y1="19.1325" x2="31.3319" y2="19.1325" gradientUnits="userSpaceOnUse">
<stop stop-color="#2863B9"/>
<stop offset="1" stop-color="#091C37"/>
</linearGradient>
<linearGradient id="paint7_linear_3278_53833" x1="36.5302" y1="20.4378" x2="37.8244" y2="20.4378" gradientUnits="userSpaceOnUse">
<stop stop-color="#2863B9"/>
<stop offset="1" stop-color="#091C37"/>
</linearGradient>
<linearGradient id="paint8_linear_3278_53833" x1="33.5995" y1="14.6927" x2="35.9459" y2="14.6927" gradientUnits="userSpaceOnUse">
<stop stop-color="#2863B9"/>
<stop offset="1" stop-color="#091C37"/>
</linearGradient>
</defs>
</svg>
